# xmcd
# Track frame offsets:
# 150
# 13487
# 26373
# 37817
# 55434
# 69166
# 82299
# 99552
# 116421
# 144387
# 163989
# 181546
# 199385
# 212790
# 229469
#
# Disc length: 3253 seconds
# Revision: 0
# Processed by: cddbd v1.4PL0 Copyright (c) Steve Scherf et al.
# Submitted via: VisiTrax 2.9.5.180 - For more info visit www.synapsa.com
#
DISCID=d40cb30f
DTITLE=Rob Tognoni band - Ruff cuts
DYEAR=1999
DGENRE=Blues
TTITLE0=Rock'n'roll business man
TTITLE1=Bottle of wine
TTITLE2=I'm gonna blow your nuts off with a gun
TTITLE3=Ballad of Julie-Ann
TTITLE4=God bless America
TTITLE5=The big one
TTITLE6=Itty bitty mam
TTITLE7=The good die young
TTITLE8=Crossword blues (Silkeborg festival)
TTITLE9=Don't be to hard on me (Kloften fest)
TTITLE10=Lil' melody (Silkeborg ferstival)
TTITLE11=The sinner (Nordals festival)
TTITLE12=Black chair (Midtfyns festival)
TTITLE13=I like to dress like batman (NL'98)
TTITLE14=Igot you, you got me
EXTD=
EXTT0=
EXTT1=
EXTT2=
EXTT3=
EXTT4=
EXTT5=
EXTT6=
EXTT7=
EXTT8=
EXTT9=
EXTT10=
EXTT11=
EXTT12=
EXTT13=
EXTT14=
PLAYORDER=
